# xmcd CD database file
#
# Track frame offsets:
#	150
#	31807
#	69010
#	84665
#	102457
#	118347
#	136255
#	154080
#	174350
#	195700
#	217542
#	245880
#	264747
#
# Disc length: 3922 seconds
#
# Revision: 0
# Processed by: cddbd v1.5.2PL0 Copyright (c) Steve Scherf et al.
# Submitted via: CDex 1.51
#
DISCID=b00f500d
DTITLE=Various Artist - !Legends Of Bajo!
DYEAR=1996
DGENRE=Salsa
TTITLE0=Semilla De Amor/Fania All-Stars
TTITLE1=Me Gusta El Son/Fania All-Stars
TTITLE2=Here Comes Candido/Candido
TTITLE3=Se Traba/Ray Barretto
TTITLE4=Bemba Colord/Celia Cruz
TTITLE5=Codazos/Bobby Valentin
TTITLE6=La Leonor/Bobby Valentin
TTITLE7=Pena De Amor/Willie Colon and Mon Rivera
TTITLE8=Piensa En MI/Ray Barretto
TTITLE9=Arsenio/Orchestra Harlow
TTITLE10=El Que Se Fue/Roberto Roena
TTITLE11=Naci Para Cantar/Ismael Miranda
TTITLE12=Moreno Soy/Sonora Poncena
EXTD=YEAR: 1996
EXTT0=
EXTT1=
EXTT2=
EXTT3=
EXTT4=
EXTT5=
EXTT6=
EXTT7=
EXTT8=
EXTT9=
EXTT10=
EXTT11=
EXTT12=
PLAYORDER=
